<svg width="45" height="39" viewBox="0 0 45 39" fill="none" xmlns="http://www.w3.org/2000/svg">
<g filter="url(#filter0_f_8625_24409)">
<mask id="mask0_8625_24409" style="mask-type:alpha" maskUnits="userSpaceOnUse" x="8" y="8" width="29" height="23">
<path d="M14.9837 8.00007C14.7406 8.00007 14.5075 8.09664 14.3355 8.26855L8.26851 14.3356C7.92507 14.679 7.90913 15.2307 8.23216 15.5934L21.639 30.6465C22.0036 31.0559 22.6435 31.0559 23.0081 30.6465L36.4148 15.5937C36.7378 15.2309 36.7219 14.6792 36.3784 14.3358L30.3111 8.26849C30.1392 8.09658 29.906 8 29.6629 8L14.9837 8.00007Z" fill="#C4C4C4"/>
</mask>
<g mask="url(#mask0_8625_24409)">
<g filter="url(#filter1_d_8625_24409)">
<path d="M14.3474 15.9774H22.3242L18.3357 9.41602L14.3474 15.9774Z" fill="url(#paint0_linear_8625_24409)"/>
<path d="M22.3242 15.9774H30.3008L26.3125 9.41602L22.3242 15.9774Z" fill="url(#paint1_linear_8625_24409)"/>
<path d="M36.9908 14.9474L30.0435 8L30.3008 15.9766L36.9908 14.9474Z" fill="url(#paint2_linear_8625_24409)"/>
<path d="M14.6043 8L7.65698 14.9474L14.347 15.9766L14.6043 8Z" fill="url(#paint3_linear_8625_24409)"/>
<path d="M7.65698 14.9473L22.3238 31.4151L14.347 15.9765L7.65698 14.9473Z" fill="url(#paint4_linear_8625_24409)"/>
<path d="M22.3242 31.4151L36.9909 14.9473L30.3008 15.9765L22.3242 31.4151Z" fill="url(#paint5_linear_8625_24409)"/>
<path d="M22.3242 31.4152L30.3008 15.9766H22.3242V31.4152Z" fill="url(#paint6_linear_8625_24409)"/>
<path d="M22.3242 31.4152V15.9766H14.3474L22.3242 31.4152Z" fill="url(#paint7_linear_8625_24409)"/>
<path d="M22.3239 15.9774L26.3122 9.41602H22.3239H18.3354L22.3239 15.9774Z" fill="url(#paint8_linear_8625_24409)"/>
<path d="M14.6047 8L14.3474 15.9766L18.3357 9.4152L14.6047 8Z" fill="url(#paint9_linear_8625_24409)"/>
<path d="M30.301 15.9766L30.0437 8L26.3127 9.4152L30.301 15.9766Z" fill="url(#paint10_linear_8625_24409)"/>
<path d="M30.043 8H22.3237H14.6042L18.3352 9.4152H22.3237H26.312L30.043 8Z" fill="url(#paint11_linear_8625_24409)"/>
</g>
</g>
</g>
<mask id="mask1_8625_24409" style="mask-type:alpha" maskUnits="userSpaceOnUse" x="8" y="8" width="29" height="23">
<path d="M14.9837 8.00007C14.7406 8.00007 14.5075 8.09664 14.3355 8.26855L8.26851 14.3356C7.92507 14.679 7.90913 15.2307 8.23216 15.5934L21.639 30.6465C22.0036 31.0559 22.6435 31.0559 23.0081 30.6465L36.4148 15.5937C36.7378 15.2309 36.7219 14.6792 36.3784 14.3358L30.3111 8.26849C30.1392 8.09658 29.906 8 29.6629 8L14.9837 8.00007Z" fill="#C4C4C4"/>
</mask>
<g mask="url(#mask1_8625_24409)">
<g filter="url(#filter2_d_8625_24409)">
<path d="M14.3474 15.9774H22.3242L18.3357 9.41602L14.3474 15.9774Z" fill="url(#paint12_linear_8625_24409)"/>
<path d="M22.3242 15.9774H30.3008L26.3125 9.41602L22.3242 15.9774Z" fill="url(#paint13_linear_8625_24409)"/>
<path d="M36.9908 14.9474L30.0435 8L30.3008 15.9766L36.9908 14.9474Z" fill="url(#paint14_linear_8625_24409)"/>
<path d="M14.6043 8L7.65698 14.9474L14.347 15.9766L14.6043 8Z" fill="url(#paint15_linear_8625_24409)"/>
<path d="M7.65698 14.9473L22.3238 31.4151L14.347 15.9765L7.65698 14.9473Z" fill="url(#paint16_linear_8625_24409)"/>
<path d="M22.3242 31.4151L36.9909 14.9473L30.3008 15.9765L22.3242 31.4151Z" fill="url(#paint17_linear_8625_24409)"/>
<path d="M22.3242 31.4152L30.3008 15.9766H22.3242V31.4152Z" fill="url(#paint18_linear_8625_24409)"/>
<path d="M22.3242 31.4152V15.9766H14.3474L22.3242 31.4152Z" fill="url(#paint19_linear_8625_24409)"/>
<path d="M22.3239 15.9774L26.3122 9.41602H22.3239H18.3354L22.3239 15.9774Z" fill="url(#paint20_linear_8625_24409)"/>
<path d="M14.6047 8L14.3474 15.9766L18.3357 9.4152L14.6047 8Z" fill="url(#paint21_linear_8625_24409)"/>
<path d="M30.301 15.9766L30.0437 8L26.3127 9.4152L30.301 15.9766Z" fill="url(#paint22_linear_8625_24409)"/>
<path d="M30.043 8H22.3237H14.6042L18.3352 9.4152H22.3237H26.312L30.043 8Z" fill="url(#paint23_linear_8625_24409)"/>
</g>
</g>
<defs>
<filter id="filter0_f_8625_24409" x="0" y="0" width="44.647" height="38.9531" filterUnits="userSpaceOnUse" color-interpolation-filters="sRGB">
<feFlood flood-opacity="0" result="BackgroundImageFix"/>
<feBlend mode="normal" in="SourceGraphic" in2="BackgroundImageFix" result="shape"/>
<feGaussianBlur stdDeviation="4" result="effect1_foregroundBlur_8625_24409"/>
</filter>
<filter id="filter1_d_8625_24409" x="0.812481" y="2.13328" width="43.023" height="37.105" filterUnits="userSpaceOnUse" color-interpolation-filters="sRGB">
<feFlood flood-opacity="0" result="BackgroundImageFix"/>
<feColorMatrix in="SourceAlpha" type="matrix" values="0 0 0 0 0 0 0 0 0 0 0 0 0 0 0 0 0 0 127 0" result="hardAlpha"/>
<feOffset dy="0.977786"/>
<feGaussianBlur stdDeviation="3.42225"/>
<feColorMatrix type="matrix" values="0 0 0 0 0.776471 0 0 0 0 0.662745 0 0 0 0 0.960784 0 0 0 0.71 0"/>
<feBlend mode="normal" in2="BackgroundImageFix" result="effect1_dropShadow_8625_24409"/>
<feBlend mode="normal" in="SourceGraphic" in2="effect1_dropShadow_8625_24409" result="shape"/>
</filter>
<filter id="filter2_d_8625_24409" x="0.812481" y="2.13328" width="43.023" height="37.105" filterUnits="userSpaceOnUse" color-interpolation-filters="sRGB">
<feFlood flood-opacity="0" result="BackgroundImageFix"/>
<feColorMatrix in="SourceAlpha" type="matrix" values="0 0 0 0 0 0 0 0 0 0 0 0 0 0 0 0 0 0 127 0" result="hardAlpha"/>
<feOffset dy="0.977786"/>
<feGaussianBlur stdDeviation="3.42225"/>
<feColorMatrix type="matrix" values="0 0 0 0 0.776471 0 0 0 0 0.662745 0 0 0 0 0.960784 0 0 0 0.71 0"/>
<feBlend mode="normal" in2="BackgroundImageFix" result="effect1_dropShadow_8625_24409"/>
<feBlend mode="normal" in="SourceGraphic" in2="effect1_dropShadow_8625_24409" result="shape"/>
</filter>
<linearGradient id="paint0_linear_8625_24409" x1="19.2363" y1="10.1879" x2="14.9907" y2="15.9774" gradientUnits="userSpaceOnUse">
<stop stop-color="#C19DFB"/>
<stop offset="1" stop-color="#A159FF"/>
</linearGradient>
<linearGradient id="paint1_linear_8625_24409" x1="26.3125" y1="9.41602" x2="26.3125" y2="15.9774" gradientUnits="userSpaceOnUse">
<stop stop-color="#DFD5F6"/>
<stop offset="1" stop-color="#FBFBFB"/>
</linearGradient>
<linearGradient id="paint2_linear_8625_24409" x1="30.0432" y1="8" x2="33.5171" y2="15.9766" gradientUnits="userSpaceOnUse">
<stop stop-color="#8357FF"/>
<stop offset="1" stop-color="#AB91FF"/>
</linearGradient>
<linearGradient id="paint3_linear_8625_24409" x1="14.6043" y1="8" x2="11.1307" y2="15.9766" gradientUnits="userSpaceOnUse">
<stop stop-color="#7E3CE8"/>
<stop offset="1" stop-color="#6908FA"/>
</linearGradient>
<linearGradient id="paint4_linear_8625_24409" x1="10.7447" y1="15.9765" x2="21.7921" y2="30.934" gradientUnits="userSpaceOnUse">
<stop stop-color="#7F35FE"/>
<stop offset="1" stop-color="#650AFB"/>
</linearGradient>
<linearGradient id="paint5_linear_8625_24409" x1="34.0316" y1="14.9473" x2="32.2646" y2="32.4203" gradientUnits="userSpaceOnUse">
<stop stop-color="#9C5FFF"/>
<stop offset="1" stop-color="#762BEA"/>
</linearGradient>
<linearGradient id="paint6_linear_8625_24409" x1="26.4409" y1="15.9766" x2="28.6057" y2="30.4774" gradientUnits="userSpaceOnUse">
<stop stop-color="#E5DBFA"/>
<stop offset="1" stop-color="#762BEA"/>
</linearGradient>
<linearGradient id="paint7_linear_8625_24409" x1="18.4642" y1="15.9766" x2="26.8036" y2="27.8026" gradientUnits="userSpaceOnUse">
<stop stop-color="#C2B6FF"/>
<stop offset="1" stop-color="#7B42FF"/>
</linearGradient>
<linearGradient id="paint8_linear_8625_24409" x1="24.2536" y1="9.54467" x2="22.4525" y2="15.9774" gradientUnits="userSpaceOnUse">
<stop stop-color="#9651FB"/>
<stop offset="1" stop-color="#BE91FB"/>
</linearGradient>
<linearGradient id="paint9_linear_8625_24409" x1="16.4059" y1="8.77193" x2="17.2697" y2="15.6073" gradientUnits="userSpaceOnUse">
<stop stop-color="#BC9CFF"/>
<stop offset="1" stop-color="#E8DFFA"/>
</linearGradient>
<linearGradient id="paint10_linear_8625_24409" x1="28.3712" y1="8.77193" x2="29.2351" y2="15.6073" gradientUnits="userSpaceOnUse">
<stop stop-color="#BC9CFF"/>
<stop offset="1" stop-color="#E8DFFA"/>
</linearGradient>
<linearGradient id="paint11_linear_8625_24409" x1="15.1189" y1="8.77193" x2="28.8849" y2="8.77193" gradientUnits="userSpaceOnUse">
<stop stop-color="#A57AFD"/>
<stop offset="1" stop-color="#DBC2FF"/>
</linearGradient>
<linearGradient id="paint12_linear_8625_24409" x1="19.2363" y1="10.1879" x2="14.9907" y2="15.9774" gradientUnits="userSpaceOnUse">
<stop stop-color="#C19DFB"/>
<stop offset="1" stop-color="#A159FF"/>
</linearGradient>
<linearGradient id="paint13_linear_8625_24409" x1="26.3125" y1="9.41602" x2="26.3125" y2="15.9774" gradientUnits="userSpaceOnUse">
<stop stop-color="#DFD5F6"/>
<stop offset="1" stop-color="#FBFBFB"/>
</linearGradient>
<linearGradient id="paint14_linear_8625_24409" x1="30.0432" y1="8" x2="33.5171" y2="15.9766" gradientUnits="userSpaceOnUse">
<stop stop-color="#8357FF"/>
<stop offset="1" stop-color="#AB91FF"/>
</linearGradient>
<linearGradient id="paint15_linear_8625_24409" x1="14.6043" y1="8" x2="11.1307" y2="15.9766" gradientUnits="userSpaceOnUse">
<stop stop-color="#7E3CE8"/>
<stop offset="1" stop-color="#6908FA"/>
</linearGradient>
<linearGradient id="paint16_linear_8625_24409" x1="10.7447" y1="15.9765" x2="21.7921" y2="30.934" gradientUnits="userSpaceOnUse">
<stop stop-color="#7F35FE"/>
<stop offset="1" stop-color="#650AFB"/>
</linearGradient>
<linearGradient id="paint17_linear_8625_24409" x1="34.0316" y1="14.9473" x2="32.2646" y2="32.4203" gradientUnits="userSpaceOnUse">
<stop stop-color="#9C5FFF"/>
<stop offset="1" stop-color="#762BEA"/>
</linearGradient>
<linearGradient id="paint18_linear_8625_24409" x1="26.4409" y1="15.9766" x2="28.6057" y2="30.4774" gradientUnits="userSpaceOnUse">
<stop stop-color="#E5DBFA"/>
<stop offset="1" stop-color="#762BEA"/>
</linearGradient>
<linearGradient id="paint19_linear_8625_24409" x1="18.4642" y1="15.9766" x2="26.8036" y2="27.8026" gradientUnits="userSpaceOnUse">
<stop stop-color="#C2B6FF"/>
<stop offset="1" stop-color="#7B42FF"/>
</linearGradient>
<linearGradient id="paint20_linear_8625_24409" x1="24.2536" y1="9.54467" x2="22.4525" y2="15.9774" gradientUnits="userSpaceOnUse">
<stop stop-color="#9651FB"/>
<stop offset="1" stop-color="#BE91FB"/>
</linearGradient>
<linearGradient id="paint21_linear_8625_24409" x1="16.4059" y1="8.77193" x2="17.2697" y2="15.6073" gradientUnits="userSpaceOnUse">
<stop stop-color="#BC9CFF"/>
<stop offset="1" stop-color="#E8DFFA"/>
</linearGradient>
<linearGradient id="paint22_linear_8625_24409" x1="28.3712" y1="8.77193" x2="29.2351" y2="15.6073" gradientUnits="userSpaceOnUse">
<stop stop-color="#BC9CFF"/>
<stop offset="1" stop-color="#E8DFFA"/>
</linearGradient>
<linearGradient id="paint23_linear_8625_24409" x1="15.1189" y1="8.77193" x2="28.8849" y2="8.77193" gradientUnits="userSpaceOnUse">
<stop stop-color="#A57AFD"/>
<stop offset="1" stop-color="#DBC2FF"/>
</linearGradient>
</defs>
</svg>
